<?xml version="1.0" encoding="UTF-8"?>
<!DOCTYPE svg PUBLIC "-//W3C//DTD SVG 1.1//EN" "http://www.w3.org/Graphics/SVG/1.1/DTD/svg11.dtd">
<!-- Creator: CorelDRAW -->
<svg xmlns="http://www.w3.org/2000/svg" xml:space="preserve" width="140.309mm" height="10.8912mm" version="1.1" style="shape-rendering:geometricPrecision; text-rendering:geometricPrecision; image-rendering:optimizeQuality; fill-rule:evenodd; clip-rule:evenodd"
viewBox="0 0 14030.9 1089.12"
 xmlns:xlink="http://www.w3.org/1999/xlink"
 xmlns:xodm="http://www.corel.com/coreldraw/odm/2003">
 <defs>
  <style type="text/css">
   <![CDATA[
    .fil0 {fill:black;fill-rule:nonzero}
   ]]>
  </style>
 </defs>
 <g id="Layer_x0020_1">
  <metadata id="CorelCorpID_0Corel-Layer"/>
  <path class="fil0" d="M796.09 897.79l-389.37 0 -55.92 173.67 -350.8 0 418.37 -1053.79 376.42 0 283.94 717.86 0 -717.86 320.77 0 417.07 581.84 0 -581.84 230.86 0 93.78 0 875.18 0 76.43 0 268.08 0 0.32 0 571.3 0c124.53,0 217.74,27.96 279.87,84.13 33.92,30.8 58.58,68.74 73.94,113.83 17.89,-25.97 38.43,-49.94 61.65,-71.88 101.22,-95.91 242.07,-143.75 422.76,-143.75 185.11,0 327.76,47.1 427.95,141.05 32.41,30.47 59.55,64.9 81.46,103.27 7.96,-30.89 21.87,-60.75 41.71,-89.53 33.14,-48.33 82.84,-86.1 149.37,-113.58 66.53,-27.47 157.67,-41.21 273.39,-41.21 142.13,0 250.35,25.02 324.9,75.31 6.7,4.5 13.15,9.23 19.36,14.21l0 -71.85 1045.39 0 0 260.5 -351.05 0 0 793.29 -343.29 0 0 -793.29 -243.39 0c2.41,11.72 4.43,23.81 6.06,36.3l-323.1 18.16c-8.54,-47.84 -26.67,-82.67 -54.11,-104.25 -27.7,-21.84 -65.76,-32.63 -114.17,-32.63 -39.86,0 -70.15,8.1 -90.35,24.04 -20.19,15.94 -30.28,35.57 -30.28,58.63 0,16.68 8.27,31.64 24.59,45.13 15.79,13.98 54.11,26.74 114.68,38.76 150.16,30.66 257.6,61.81 322.32,93.21 64.98,31.4 112.36,70.15 141.87,116.76 29.52,46.36 44.27,98.37 44.27,156.01 0,67.46 -19.68,129.76 -59.03,186.92 -39.61,56.9 -94.49,100.32 -165.42,129.76 -70.68,29.43 -159.74,44.15 -267.44,44.15 -188.98,0 -319.98,-34.59 -392.73,-103.51 -36.95,-35.01 -65.75,-74.83 -86.4,-119.47 -42.69,66.02 -100.72,118.43 -173.72,157.24 -82.85,43.91 -185.88,65.74 -309.37,65.74 -125.3,0 -229.12,-18.89 -311.44,-56.66 -82.07,-38.02 -148.87,-97.88 -199.87,-179.8 -43.75,-70.07 -68.83,-155.47 -75.07,-256.06 -67.62,56.63 -168.9,84.84 -303.62,84.84l-188.47 0 0 390.02 -344.52 0 -0.32 0 -344.51 0 0 -793.29 -274.62 0 0 793.29 -343.29 0 0 -793.29 -257.27 0 0 793.29 -324.64 0 -414.75 -578.65 0 578.65 -190.22 0 -132.87 0 -226.98 0 -55.66 -173.67zm12024.76 -880.12l381.61 0 224.97 354.69 223.94 -354.69 379.53 0 -431.83 612.5 0 441.29 -344.83 0 0 -441.29 -211.02 -298.23c-2.84,49.52 -15.84,92.98 -39.02,130.2 -26.14,42.68 -62.38,77.03 -108.73,103.52 -29.25,16.68 -69.63,30.66 -120.64,41.7 40.91,13 70.68,25.75 89.32,38.76 12.42,8.58 30.81,27.22 54.88,55.43 23.82,28.21 39.87,50.04 47.9,65.5l166.98 304.41 -388.34 0 -183.54 -321.34c-23.31,-41.7 -44.01,-68.68 -62.13,-81.19 -24.86,-16.19 -53.08,-24.29 -84.41,-24.29l-30.29 0 0 426.82 -290.15 0 -54.68 0 -792.85 0 -89.13 0 -702.49 0 -89.13 0 -655.64 0 -135.98 0 -223.87 0 -55.66 -173.67 -389.37 0 -55.92 173.67 -350.8 0 32.26 -81.26c-53.72,28.3 -103.37,49.44 -148.94,63.35 -78.19,23.8 -170.88,35.57 -278.05,35.57 -132.03,0 -239.74,-21.34 -322.84,-64.02 -83.1,-42.44 -147.57,-105.97 -193.38,-190.35 -45.83,-84.14 -68.62,-181.03 -68.62,-290.19 0,-115.04 25.12,-214.88 75.08,-300 49.97,-84.87 123.23,-149.38 219.79,-193.53 75.35,-34.1 176.83,-51.03 304.21,-51.03 122.71,0 214.61,10.55 275.45,31.65 61.09,21.09 111.59,53.72 151.71,98.12 40.13,44.39 70.42,100.57 90.61,168.51l-330.86 56.42c-13.72,-39.98 -36.76,-70.64 -69.38,-91.74 -32.62,-21.34 -74.04,-31.89 -124.79,-31.89 -75.08,0 -135.13,24.78 -179.92,74.33 -44.79,49.55 -67.05,128.04 -67.05,235.24 0,113.82 22.52,195.25 67.82,244.07 45.05,48.81 108.22,73.34 188.99,73.34 38.32,0 74.82,-5.15 109.77,-15.7 34.7,-10.54 74.56,-28.45 119.6,-53.47l0 -98.61 -229.89 0 0 -219.3 531.24 0 0 215.59 265.56 -668.89 376.42 0 280.83 710 0 -710 343.29 0 0 794.76 448.33 0 0 -794.76 343.29 0 0 794.76 448.33 0 0 -794.76 881.98 0 37.59 0 535.07 0c93.36,0 167.49,6.64 222.04,20.09l-14.22 -20.09zm-780.48 815.36l0 -590.18 -537.13 0 0 167.78 532.79 0 0 214.88 -532.79 0 0 207.52 537.13 0zm344.83 -387.08l145.24 0c15.53,0 46.08,-4.9 91.13,-14.47 22.78,-4.17 41.42,-15.21 55.67,-33.11 14.49,-17.91 21.74,-38.27 21.74,-61.33 0,-34.09 -11.39,-60.34 -34.18,-78.49 -22.78,-18.4 -65.5,-27.48 -128.41,-27.48l-151.19 0 0 214.88zm-3162.33 223.71l-121.42 -378.73 -121.94 378.73 243.36 0zm-3875.26 -178.16c0.82,14.76 1.24,29.83 1.24,45.21 0,66.61 -6.36,126.69 -19.13,180.27l226.7 -13.47c6.99,50.05 21.49,88.31 43.23,114.31 35.47,42.44 85.95,63.78 151.71,63.78 48.94,0 86.73,-10.79 113.14,-32.62 26.66,-21.84 39.86,-47.1 39.86,-75.8 0,-27.23 -12.42,-51.76 -37.53,-73.34 -25.12,-21.59 -83.62,-41.7 -175.53,-61.08 -150.68,-31.89 -257.85,-74.57 -322.05,-127.8 -7.67,-6.28 -14.88,-12.77 -21.64,-19.46zm-808.05 54.53c0,106.22 20.98,182.75 62.66,229.11 41.94,46.36 98.9,69.67 170.86,69.67 73.79,0 131.27,-22.82 171.65,-68.2 40.64,-45.62 60.84,-127.06 60.84,-245.05 0,-99.1 -21.23,-171.46 -63.43,-217.09 -42.46,-45.87 -99.67,-68.68 -172.16,-68.68 -69.38,0 -125.31,23.3 -167.24,69.67 -42.2,46.36 -63.18,123.38 -63.18,230.57zm-833.81 -78l84.66 0c66.79,0 113.65,-11.04 140.57,-32.87 26.93,-21.83 40.39,-49.79 40.39,-83.89 0,-33.12 -11.65,-61.08 -35.21,-84.14 -23.3,-23.06 -67.31,-34.58 -132.03,-34.58l-98.38 0 0 235.48zm-2982.4 201.63l-121.42 -378.73 -121.94 378.73 243.36 0z"/>
 </g>
</svg>
