<?xml version="1.0" encoding="UTF-8"?>
<!DOCTYPE svg PUBLIC "-//W3C//DTD SVG 1.1//EN" "http://www.w3.org/Graphics/SVG/1.1/DTD/svg11.dtd">
<!-- Creator: CorelDRAW -->
<svg xmlns="http://www.w3.org/2000/svg" xml:space="preserve" width="35.9757mm" height="7.2717mm" version="1.1" style="shape-rendering:geometricPrecision; text-rendering:geometricPrecision; image-rendering:optimizeQuality; fill-rule:evenodd; clip-rule:evenodd"
viewBox="0 0 2287.55 462.38"
 xmlns:xlink="http://www.w3.org/1999/xlink"
 xmlns:xodm="http://www.corel.com/coreldraw/odm/2003">
 <defs>
  <style type="text/css">
   <![CDATA[
    .fil0 {fill:black;fill-rule:nonzero}
   ]]>
  </style>
 </defs>
 <g id="Layer_x0020_1">
  <metadata id="CorelCorpID_0Corel-Layer"/>
  <path class="fil0" d="M-0 0l198.78 0 75.88 281.34 75.99 -281.34 198 0 0 310.38 123.22 -310.38 165.16 0 123.91 313.28 0 -313.28 150.62 0 0 174.68 158.01 -174.68 151.16 0 49.33 0 337.65 0 16.49 0 234.77 0c46.58,0 82.25,3.76 106.78,11.41 24.66,7.53 44.54,21.64 59.64,42.09 15.1,20.56 22.6,45.63 22.6,75.12 0,25.62 -5.79,47.79 -17.37,66.41 -11.48,18.73 -27.38,33.8 -47.71,45.42 -12.83,7.32 -30.56,13.45 -52.93,18.3 17.94,5.7 31,11.3 39.18,17 5.46,3.77 13.52,11.95 24.09,24.33 10.45,12.37 17.49,21.96 21.02,28.73l73.27 133.57 -170.39 0 -80.54 -141c-10.23,-18.29 -19.32,-30.13 -27.27,-35.63 -10.91,-7.1 -23.29,-10.65 -37.03,-10.65l-13.29 0 0 187.27 -127.31 0 -24 0 -329.48 0 -57.51 0 -127.99 0 -102.91 -189.86 -78.27 77.28 0 112.58 -91.65 0 -58.98 0 -98.91 0 -24.42 -76.2 -170.85 0 -24.53 76.2 -93.57 0 -60.34 0 -63.03 0 0 -352.49 -95.19 352.49 -111.78 0 -94.97 -352.49 0 352.49 -123.36 0 0 -462.38zm1807.73 98.81l-235.68 0 0 73.62 233.77 0 0 94.28 -233.77 0 0 91.06 235.68 0 0 -258.95zm151.3 89.12l63.73 0c6.82,0 20.22,-2.16 39.98,-6.35 10,-1.82 18.18,-6.67 24.42,-14.53 6.36,-7.85 9.54,-16.79 9.54,-26.9 0,-14.96 -5,-26.48 -14.99,-34.44 -10,-8.07 -28.74,-12.06 -56.34,-12.06l-66.34 0 0 94.29zm-538.29 -139.78l-128.78 125.68 128.78 199.48 0 -325.16zm-615.05 237.94l-53.28 -166.18 -53.49 166.18 106.77 0z"/>
 </g>
</svg>
