<?xml version="1.0" encoding="UTF-8"?>
<!DOCTYPE svg PUBLIC "-//W3C//DTD SVG 1.1//EN" "http://www.w3.org/Graphics/SVG/1.1/DTD/svg11.dtd">
<!-- Creator: CorelDRAW -->
<svg xmlns="http://www.w3.org/2000/svg" xml:space="preserve" width="39.0462mm" height="7.5155mm" version="1.1" style="shape-rendering:geometricPrecision; text-rendering:geometricPrecision; image-rendering:optimizeQuality; fill-rule:evenodd; clip-rule:evenodd"
viewBox="0 0 3592.95 691.56"
 xmlns:xlink="http://www.w3.org/1999/xlink"
 xmlns:xodm="http://www.corel.com/coreldraw/odm/2003">
 <defs>
  <style type="text/css">
   <![CDATA[
    .fil0 {fill:black;fill-rule:nonzero}
   ]]>
  </style>
 </defs>
 <g id="Layer_x0020_1">
  <metadata id="CorelCorpID_0Corel-Layer"/>
  <path class="fil0" d="M-0 11.22l362.97 0c79.07,0 138.26,17.76 177.71,53.43 21.54,19.55 37.2,43.64 46.96,72.28 11.36,-16.49 24.4,-31.71 39.14,-45.65 64.28,-60.9 153.71,-91.27 268.44,-91.27 117.53,0 208.12,29.91 271.73,89.56 20.58,19.34 37.81,41.21 51.72,65.56 5.05,-19.62 13.89,-38.56 26.48,-56.84 21.04,-30.69 52.6,-54.67 94.84,-72.11 42.25,-17.45 100.12,-26.17 173.6,-26.17 90.25,0 158.96,15.89 206.3,47.82 4.25,2.85 8.35,5.86 12.28,9.02l0 -45.62 606.37 0 57.42 0 502.61 0 23.86 0 339.75 0c67.4,0 119.03,5.45 154.53,16.51 35.68,10.9 64.45,31.31 86.31,60.91 21.85,29.75 32.7,66.03 32.7,108.71 0,37.07 -8.38,69.16 -25.14,96.1 -16.61,27.1 -39.62,48.91 -69.05,65.73 -18.57,10.59 -44.22,19.47 -76.6,26.48 25.97,8.25 44.87,16.35 56.7,24.61 7.9,5.46 19.56,17.29 34.86,35.21 15.12,17.91 25.31,31.77 30.41,41.58l106.03 193.29 -246.58 0 -116.55 -204.04c-14.81,-26.47 -27.96,-43.61 -39.46,-51.56 -15.78,-10.28 -33.71,-15.41 -53.59,-15.41l-19.23 0 0 271.01 -184.24 0 -34.72 0 -560.03 0 0 -503.72 -165.49 0 0 503.72 -217.98 0 0 -503.72 -154.54 0c1.54,7.44 2.82,15.12 3.85,23.05l-205.15 11.53c-5.43,-30.38 -16.93,-52.49 -34.36,-66.2 -17.58,-13.86 -41.75,-20.71 -72.49,-20.71 -25.31,0 -44.55,5.13 -57.37,15.27 -12.82,10.12 -19.22,22.58 -19.22,37.22 0,10.59 5.25,20.1 15.62,28.66 10.02,8.87 34.35,16.98 72.81,24.61 95.35,19.47 163.57,39.25 204.67,59.19 41.25,19.94 71.34,44.55 90.09,74.14 18.73,29.44 28.1,62.46 28.1,99.07 0,42.83 -12.49,82.39 -37.47,118.68 -25.16,36.14 -60,63.7 -105.05,82.39 -44.88,18.69 -101.43,28.04 -169.82,28.04 -119.99,0 -203.18,-21.96 -249.36,-65.73 -23.46,-22.23 -41.76,-47.53 -54.87,-75.86 -27.11,41.91 -63.95,75.2 -110.3,99.84 -52.61,27.88 -118.02,41.75 -196.44,41.75 -79.57,0 -145.48,-12 -197.76,-35.98 -52.11,-24.15 -94.52,-62.15 -126.91,-114.18 -27.77,-44.48 -43.69,-98.71 -47.67,-162.57 -42.94,35.95 -107.26,53.86 -192.8,53.86l-119.66 0 0 247.65 -218.98 0 0 -669.13zm2898.59 142.99l-341.07 0 0 106.54 338.3 0 0 136.44 -338.3 0 0 131.77 341.07 0 0 -374.74zm218.96 128.96l92.22 0c9.86,0 29.26,-3.12 57.86,-9.19 14.47,-2.64 26.31,-9.65 35.34,-21.03 9.21,-11.36 13.81,-24.29 13.81,-38.93 0,-21.65 -7.23,-38.32 -21.7,-49.85 -14.47,-11.68 -41.59,-17.45 -81.54,-17.45l-96 0 0 136.44zm-1856.04 28.94c0.52,9.37 0.79,18.93 0.79,28.69 0,42.29 -4.05,80.44 -12.16,114.46l143.94 -8.55c4.44,31.77 13.65,56.08 27.46,72.58 22.52,26.94 54.58,40.5 96.32,40.5 31.07,0 55.06,-6.86 71.84,-20.71 16.93,-13.87 25.31,-29.91 25.31,-48.13 0,-17.29 -7.9,-32.86 -23.84,-46.57 -15.95,-13.7 -53.09,-26.47 -111.44,-38.79 -95.67,-20.24 -163.74,-47.34 -204.5,-81.14 -4.87,-3.98 -9.44,-8.1 -13.73,-12.34zm-513.08 34.61c0,67.44 13.32,116.03 39.78,145.48 26.63,29.44 62.79,44.23 108.5,44.23 46.85,0 83.35,-14.48 108.99,-43.3 25.81,-28.97 38.63,-80.68 38.63,-155.6 0,-62.92 -13.48,-108.87 -40.27,-137.84 -26.96,-29.12 -63.3,-43.61 -109.32,-43.61 -44.07,0 -79.57,14.8 -106.2,44.23 -26.8,29.44 -40.11,78.34 -40.11,146.41zm-529.44 -49.53l53.75 0c42.41,0 72.16,-7 89.27,-20.87 17.09,-13.86 25.64,-31.62 25.64,-53.27 0,-21.03 -7.39,-38.78 -22.36,-53.43 -14.79,-14.64 -42.74,-21.96 -83.83,-21.96l-62.46 0 0 149.52z"/>
 </g>
</svg>
