<?xml version="1.0" encoding="UTF-8"?>
<!DOCTYPE svg PUBLIC "-//W3C//DTD SVG 1.1//EN" "http://www.w3.org/Graphics/SVG/1.1/DTD/svg11.dtd">
<!-- Creator: CorelDRAW -->
<svg xmlns="http://www.w3.org/2000/svg" xml:space="preserve" width="28.8409mm" height="7.5155mm" version="1.1" style="shape-rendering:geometricPrecision; text-rendering:geometricPrecision; image-rendering:optimizeQuality; fill-rule:evenodd; clip-rule:evenodd"
viewBox="0 0 647.17 168.64"
 xmlns:xlink="http://www.w3.org/1999/xlink"
 xmlns:xodm="http://www.corel.com/coreldraw/odm/2003">
 <defs>
  <style type="text/css">
   <![CDATA[
    .fil0 {fill:black;fill-rule:nonzero}
   ]]>
  </style>
 </defs>
 <g id="Layer_x0020_1">
  <metadata id="CorelCorpID_0Corel-Layer"/>
  <path class="fil0" d="M-0 2.74l59.08 0 34.84 54.92 34.68 -54.92 58.77 0 -7.91 11.22c14.44,-9.31 32.72,-13.96 54.88,-13.96 28.66,0 50.75,7.29 66.26,21.84 5.86,5.51 10.62,11.86 14.26,19.04l0 -38.15 53.15 0 0 99.51c0,8.89 2.61,15.84 7.78,20.81 5.21,5.01 12.43,7.52 21.65,7.52 9.1,0 16.28,-2.47 21.49,-7.41 5.17,-4.9 7.78,-11.89 7.78,-20.93l0 -99.51 51.14 0 2.02 0 86.65 0c16.44,0 29.03,1.33 37.68,4.03 8.7,2.66 15.72,7.64 21.05,14.85 5.33,7.25 7.97,16.1 7.97,26.51 0,9.04 -2.04,16.87 -6.13,23.44 -4.05,6.61 -9.66,11.93 -16.84,16.03 -4.53,2.58 -10.78,4.75 -18.68,6.46 6.33,2.01 10.94,3.99 13.83,6 1.93,1.33 4.77,4.22 8.5,8.59 3.69,4.37 6.17,7.75 7.42,10.14l25.86 47.14 -60.13 0 -28.42 -49.76c-3.61,-6.46 -6.82,-10.63 -9.62,-12.57 -3.85,-2.51 -8.22,-3.76 -13.07,-3.76l-4.69 0 0 66.09 -53.39 0 0 -47.91c-0.72,3.14 -1.64,6.21 -2.76,9.21 -3.17,8.58 -8.14,16.07 -14.91,22.48 -6.78,6.42 -13.87,10.9 -21.29,13.52 -10.35,3.61 -22.77,5.43 -37.24,5.43 -8.38,0 -17.52,-0.57 -27.42,-1.67 -9.9,-1.1 -18.2,-3.31 -24.86,-6.61 -6.66,-3.31 -12.75,-7.98 -18.24,-14.05 -5.53,-6.08 -9.3,-12.34 -11.35,-18.8 -0.71,-2.25 -1.35,-4.45 -1.91,-6.59 -1.21,3.2 -2.6,6.22 -4.17,9.06 -6.77,12.19 -16.6,21.69 -29.38,28.49 -12.83,6.8 -28.78,10.18 -47.9,10.18 -19.4,0 -35.48,-2.93 -48.22,-8.77 -12.71,-5.89 -23.05,-15.16 -30.95,-27.84 -7.9,-12.65 -11.87,-28.52 -11.87,-47.59 0,-9.59 1.01,-18.41 3.04,-26.47l-27.93 39.61 0 68.33 -53.39 0 0 -68.33 -67.1 -94.84zm531.23 66.32l22.49 0c2.41,0 7.14,-0.76 14.11,-2.24 3.53,-0.64 6.42,-2.35 8.62,-5.13 2.25,-2.77 3.37,-5.92 3.37,-9.49 0,-5.28 -1.76,-9.34 -5.29,-12.16 -3.53,-2.85 -10.14,-4.25 -19.88,-4.25l-23.41 0 0 33.27zm-332.7 15.5c0,16.45 3.25,28.3 9.7,35.48 6.49,7.18 15.31,10.79 26.46,10.79 11.42,0 20.33,-3.53 26.58,-10.56 6.29,-7.06 9.42,-19.67 9.42,-37.94 0,-15.34 -3.29,-26.55 -9.82,-33.61 -6.57,-7.1 -15.44,-10.63 -26.66,-10.63 -10.75,0 -19.4,3.61 -25.9,10.79 -6.53,7.18 -9.78,19.1 -9.78,35.7z"/>
 </g>
</svg>
